<?xml version="1.0" encoding="UTF-8" standalone="no"?>
<!DOCTYPE svg PUBLIC "-//W3C//DTD SVG 20010904//EN"
              "http://www.w3.org/TR/2001/REC-SVG-20010904/DTD/svg10.dtd">

<svg xmlns="http://www.w3.org/2000/svg"
     width="6.27778in" height="2.51111in"
     viewBox="0 0 565 226">
  <defs>
    <linearGradient id="logo_color" x1="0%" y1="0%" x2="100%" y2="0%">
     <stop offset="0%"   stop-color="#ea4335"/>
     <stop offset="50%"  stop-color="#bf00ff"/>
     <stop offset="100%" stop-color="#4285f4"/>
    </linearGradient>
    <linearGradient id="alpha_color" x1="0%" y1="0%" x2="100%" y2="0%">
     <stop offset="0%"   stop-color="#4285f4"/>
     <stop offset="100%" stop-color="#34a853"/>
    </linearGradient>
  </defs>
  <path id="bot"
        fill="#34495e" stroke="none" stroke-width="1"
        d="M 407.53,118.27
           C 407.53,116.88 406.99,115.54 405.92,114.23
             404.86,112.92 402.98,112.18 400.30,112.00
             398.54,114.00 396.41,115.00 393.91,115.00
             391.77,115.00 389.95,114.23 388.44,112.69
             386.94,111.15 386.19,109.25 386.19,107.00
             386.19,104.75 386.94,102.86 388.44,101.31
             389.95,99.77 391.77,99.00 393.91,99.00
             395.03,99.00 396.14,99.40 397.23,100.19
             398.33,100.97 399.32,101.91 400.20,103.00
             401.58,102.94 402.64,102.72 403.39,102.34
             404.14,101.96 404.69,101.50 405.03,100.95
             405.38,100.41 405.59,99.79 405.66,99.09
             405.72,98.40 405.75,97.70 405.75,97.00
             405.75,97.00 405.75,87.38 405.75,87.38
             405.75,85.79 405.26,84.34 404.28,83.00
             403.31,81.67 401.67,81.00 399.36,81.00
             399.36,81.00 379.70,81.00 379.70,81.00
             379.70,81.00 379.61,143.14 379.61,143.14
             379.61,144.39 379.02,145.34 377.86,146.00
             376.70,146.66 375.44,147.00 374.06,147.00
             370.36,147.00 368.52,145.48 368.52,142.45
             368.52,142.45 368.52,76.69 368.52,76.69
             368.52,74.42 369.09,72.90 370.25,72.14
             371.41,71.38 372.81,71.00 374.44,71.00
             374.44,71.00 401.70,71.00 401.70,71.00
             403.34,71.00 405.08,71.32 406.92,71.95
             408.77,72.58 410.52,73.43 412.14,74.50
             412.14,74.50 412.05,74.50 412.05,74.50
             413.68,75.70 414.89,77.27 415.67,79.22
             416.45,81.17 416.84,83.43 416.84,86.02
             416.84,86.02 416.84,96.69 416.84,96.69
             416.84,99.21 416.30,101.27 415.23,102.88
             414.17,104.48 413.05,105.76 411.86,106.70
             412.67,107.20 413.45,107.73 414.20,108.27
             414.96,108.80 415.59,109.38 416.09,110.00
             416.91,110.89 417.55,111.93 418.02,113.12
             418.48,114.31 418.72,115.73 418.72,117.36
             418.72,117.36 418.72,130.83 418.72,130.83
             418.72,135.98 416.71,139.79 412.70,142.23
             410.69,143.48 408.79,144.43 407.00,145.06
             405.22,145.69 403.45,146.00 401.70,146.00
             401.70,146.00 387.80,146.00 387.80,146.00
             386.72,146.00 385.89,145.54 385.30,144.62
             384.70,143.70 384.41,142.48 384.41,140.95
             384.41,137.65 385.72,136.00 388.36,136.00
             388.36,136.00 401.23,136.00 401.23,136.00
             403.55,136.00 405.17,135.37 406.11,134.09
             407.05,132.82 407.53,131.40 407.53,129.81
             407.53,129.81 407.53,118.27 407.53,118.27 Z
           M 461.75,89.00
           C 463.38,89.00 465.06,89.35 466.78,90.05
             468.51,90.73 470.19,91.62 471.81,92.69
             471.81,92.69 471.72,92.69 471.72,92.69
             473.35,93.89 474.61,95.45 475.48,97.38
             476.36,99.30 476.80,101.53 476.80,104.06
             476.80,104.06 476.80,130.94 476.80,130.94
             476.80,136.12 475.10,139.94 471.72,142.41
             468.39,144.80 465.07,146.00 461.75,146.00
             461.75,146.00 446.72,146.00 446.72,146.00
             445.08,146.00 443.41,145.72 441.72,145.16
             440.03,144.59 438.38,143.67 436.75,142.41
             433.36,140.00 431.67,136.18 431.67,130.94
             431.67,130.94 431.67,104.06 431.67,104.06
             431.67,101.53 432.11,99.30 432.98,97.38
             433.86,95.45 435.11,93.89 436.75,92.69
             436.75,92.69 436.66,92.69 436.66,92.69
             438.22,91.62 439.88,90.73 441.62,90.05
             443.38,89.35 445.08,89.00 446.72,89.00
             446.72,89.00 461.75,89.00 461.75,89.00 Z
           M 460.06,137.00
           C 462.38,137.00 464.03,136.34 465.00,135.03
             465.97,133.71 466.45,132.29 466.45,130.78
             466.45,130.78 466.45,104.22 466.45,104.22
             466.45,102.65 465.97,101.22 465.00,99.94
             464.03,98.65 462.38,98.00 460.06,98.00
             460.06,98.00 448.41,98.00 448.41,98.00
             446.08,98.00 444.44,98.65 443.47,99.94
             442.50,101.22 442.02,102.65 442.02,104.22
             442.02,104.22 442.02,130.78 442.02,130.78
             442.02,132.29 442.50,133.71 443.47,135.03
             444.44,136.34 446.08,137.00 448.41,137.00
             448.41,137.00 460.06,137.00 460.06,137.00 Z
           M 500.98,98.00
           C 500.98,98.00 500.98,131.97 500.98,131.97
             500.98,133.59 501.33,134.83 502.02,135.70
             502.71,136.57 504.19,137.00 506.44,137.00
             506.44,137.00 508.89,137.00 508.89,137.00
             511.33,137.00 512.48,138.48 512.36,141.45
             512.36,144.48 511.20,146.00 508.89,146.00
             508.89,146.00 505.78,146.00 505.78,146.00
             503.78,146.00 501.90,145.73 500.14,145.20
             498.38,144.67 496.69,143.91 495.06,142.91
             495.06,142.91 495.06,143.00 495.06,143.00
             491.99,140.99 490.45,137.42 490.45,132.28
             490.45,132.28 490.45,98.00 490.45,98.00
             490.45,98.00 486.80,98.00 486.80,98.00
             484.54,98.00 483.34,96.50 483.22,93.50
             483.22,90.50 484.41,89.00 486.80,89.00
             486.80,89.00 490.45,89.00 490.45,89.00
             490.45,89.00 490.45,78.95 490.45,78.95
             490.45,75.95 492.24,74.44 495.81,74.44
             499.26,74.44 500.98,75.95 500.98,78.95
             500.98,78.95 500.98,89.00 500.98,89.00
             500.98,89.00 508.80,89.00 508.80,89.00
             511.23,89.00 512.39,90.50 512.27,93.50
             512.27,96.50 511.11,98.00 508.80,98.00
             508.80,98.00 500.98,98.00 500.98,98.00 Z" />
  <path id="alpha"
        fill="url(#alpha_color)" stroke="none" stroke-width="1"
        d="M 175.98,71.22
           C 182.11,71.97 182.07,74.46 182.18,80.09
             182.18,80.09 182.18,133.90 182.18,133.90
             182.18,135.96 182.36,140.35 181.47,142.19
             179.70,145.65 174.36,145.47 172.21,142.19
             170.79,140.14 170.95,136.39 170.94,133.90
             170.94,133.90 170.94,82.59 170.94,82.59
             170.95,76.91 169.86,73.20 175.98,71.22 Z
           M 263.41,98.86
           C 263.41,98.86 263.41,135.15 263.41,135.15
             263.32,149.14 255.10,144.73 253.43,142.27
             251.90,139.97 252.16,135.37 252.16,132.64
             252.16,132.64 252.16,81.34 252.16,81.34
             252.19,77.72 251.71,72.72 256.08,71.43
             265.24,68.73 263.41,82.62 263.41,87.60
             271.32,87.60 284.26,86.48 290.85,91.00
             293.26,92.66 295.16,94.87 296.22,97.61
             297.83,101.79 297.18,128.77 297.15,135.15
             297.13,137.36 297.36,141.20 295.91,142.98
             294.98,144.12 293.53,144.65 292.11,144.70
             286.31,144.87 285.99,139.48 285.90,135.15
             285.90,135.15 285.90,110.12 285.90,110.12
             285.85,106.74 286.00,102.30 282.86,100.13
             280.01,98.17 267.42,98.86 263.41,98.86 Z
           M 207.17,98.86
           C 207.17,98.86 207.17,122.63 207.17,122.63
             207.17,122.63 207.17,147.66 207.17,147.66
             207.07,152.53 205.51,159.64 198.70,156.90
             192.70,154.49 194.68,134.78 194.68,128.89
             194.68,128.89 194.68,100.11 194.68,100.11
             194.73,96.46 194.62,92.46 197.71,89.91
             201.56,86.76 213.31,87.55 218.42,87.60
             221.82,87.65 223.79,87.70 227.17,88.43
             238.05,90.81 240.78,95.74 240.91,106.37
             240.91,106.37 240.91,125.14 240.91,125.14
             240.89,131.14 240.88,137.41 235.64,141.44
             230.83,145.16 221.83,145.95 215.97,144.97
             212.52,144.41 209.30,141.89 210.72,138.01
             212.71,132.62 221.82,137.73 226.42,132.26
             229.47,128.63 228.46,115.16 228.42,110.12
             228.39,106.70 228.75,102.30 225.53,100.13
             222.62,98.19 211.12,98.86 207.17,98.86 Z
           M 343.38,111.37
           C 343.27,102.32 342.08,98.87 332.14,98.87
             329.95,98.87 327.04,98.87 325.18,100.13
             321.70,102.50 322.61,107.64 318.21,109.07
             313.93,110.45 310.37,106.73 310.15,102.59
             309.92,97.88 313.29,92.93 317.25,90.65
             326.75,85.21 349.12,85.73 353.70,97.61
             355.34,101.82 354.64,127.55 354.63,133.90
             354.62,138.93 355.08,146.53 347.29,144.57
             341.27,143.04 343.38,126.54 343.38,121.38
             343.38,121.38 332.14,121.38 332.14,121.38
             319.56,121.62 319.85,129.97 322.89,132.97
             326.57,136.62 334.27,133.88 337.82,136.42
             339.08,137.32 339.81,138.59 339.81,140.15
             339.81,146.10 331.05,145.20 327.14,145.16
             321.96,145.10 316.57,144.73 312.63,140.88
             306.42,134.82 306.89,120.21 313.65,114.69
             319.65,109.79 335.55,111.37 343.38,111.37 Z" />
  <path id="logo"
        fill="url(#logo_color)" stroke="none" stroke-width="1"
        d="M 107.20,56.31
           C 107.20,56.31 92.56,102.61 92.56,102.61
             92.56,102.61 82.21,133.90 82.21,133.90
             80.05,140.39 73.23,164.84 70.09,168.65
             64.87,174.98 54.92,170.71 53.02,165.13
             51.85,161.69 53.67,157.23 54.70,153.92
             54.70,153.92 61.38,132.64 61.38,132.64
             61.38,132.64 81.80,70.08 81.80,70.08
             83.55,64.82 89.15,46.13 91.83,42.83
             95.28,38.59 104.51,37.53 109.70,37.94
             126.45,39.28 127.15,50.02 131.30,63.82
             131.30,63.82 153.85,133.90 153.85,133.90
             155.79,139.72 163.70,160.33 162.30,165.13
             160.35,171.83 150.02,173.39 145.51,168.55
             142.31,165.11 135.52,141.37 133.45,135.15
             133.45,135.15 123.45,105.11 123.45,105.11
             123.45,105.11 107.20,56.31 107.20,56.31 Z
           M 102.26,118.69
           C 106.58,117.50 110.62,117.05 114.57,119.81
             122.59,125.39 120.96,139.16 110.95,142.78
             98.25,147.36 86.77,127.88 102.26,118.69 Z" />
</svg>
